# xmcd
#
# Track frame offsets: 
#        150
#        15816
#        31648
#        46104
#        77356
#        88932
#        106357
#        125632
#        142661
#        157594
#        169996
#        181006
#        193011
#        216945
#        246991
#        258230
#        276925
#        290421
#        305126
#        318489
#        330523
#
# Disc length: 4571 seconds
#
# Revision: 0
# Processed by: cddbd v1.5PL3 Copyright (c) Steve Scherf et al.
# Submitted via: ExactAudioCopy v0.95a5
#
DISCID=1411d915
DTITLE=Bob Dylan - Bob Dylan's Greatest Hits Vol. II
DYEAR=1971
DGENRE=Blues
TTITLE0=Watching The River Flow
TTITLE1=Don't Think Twice, It's All Right
TTITLE2=Lay Lady Lay
TTITLE3=Stuck inside of Mobile with The Memphis Blues again
TTITLE4=I'll Be your Baby Tonight
TTITLE5=All I ready want to do
TTITLE6=My Back Pages
TTITLE7=Maggie's Farm
TTITLE8=Tonight I'll staying here with you
TTITLE9=She Belong to me
TTITLE10=All Along The Watchtower
TTITLE11=The Mighty Quinn (Quinn, The Eskimo)
TTITLE12=Just like Tom Thumb's Blue
TTITLE13=A Hard Rain's A-Gonna Fall
TTITLE14=If not for you
TTITLE15=It's All over Now, Baby Blue
TTITLE16=Tomorrow is a long time
TTITLE17=When I paint my masterpiece
TTITLE18=I shall be released
TTITLE19=You Ain't Goin' nowhere
TTITLE20=Qown in The Flood
EXTD=
EXTT0=
EXTT1=
EXTT2=
EXTT3=
EXTT4=
EXTT5=
EXTT6=
EXTT7=
EXTT8=
EXTT9=
EXTT10=
EXTT11=
EXTT12=
EXTT13=
EXTT14=
EXTT15=
EXTT16=
EXTT17=
EXTT18=
EXTT19=
EXTT20=
PLAYORDER=
